<?xml version="1.0" standalone="no"?>
<!DOCTYPE svg PUBLIC "-//W3C//DTD SVG 1.1//EN" "http://www.w3.org/Graphics/SVG/1.1/DTD/svg11.dtd">
<svg version="1.1" xmlns="http://www.w3.org/2000/svg" viewBox="0 0 119.3984375 118.84765625" width="238.796875" height="237.6953125"><!-- svg-source:excalidraw --><metadata></metadata><defs><style class="style-fonts">
      </style></defs><g stroke-linecap="round" transform="translate(10 10) rotate(0 49.69921875 49.423828125)"><path d="M-0.27 0.08 C18.16 1.22, 39.19 -2.07, 97.23 -0.46 M-1.02 -1.4 C36.68 0.72, 72.44 1.56, 99.21 0.18 M99.61 2.16 C94.73 16.48, 101.69 43.55, 100.62 97.81 M98.77 -0.05 C99.24 33.36, 98.01 61.18, 100.57 96.85 M99 101.57 C74.59 95.08, 41.75 99.71, -2.56 102.36 M98.61 99.12 C60 97.92, 22.7 100.16, 1.56 100.82 M1.67 102.12 C-2.18 61.73, -3.58 28.76, 0.65 -3.35 M0.23 99.22 C-0.51 71.5, -2.77 41.28, 1.73 1.2" stroke="#1e1e1e" stroke-width="2" fill="none"></path></g></svg>