<?xml version="1.0" standalone="no"?>
<!DOCTYPE svg PUBLIC "-//W3C//DTD SVG 1.1//EN" "http://www.w3.org/Graphics/SVG/1.1/DTD/svg11.dtd">
<svg version="1.1" xmlns="http://www.w3.org/2000/svg" viewBox="0 0 119.3984375 118.84765625" width="238.796875" height="237.6953125"><!-- svg-source:excalidraw --><metadata></metadata><defs><style class="style-fonts">
      </style></defs><g stroke-linecap="round" transform="translate(10 10) rotate(0 49.69921875 49.423828125)"><path d="M2.76 -1.8 C35.25 3.16, 74.13 -2.43, 97.02 1.76 M1.22 -0.21 C22.68 -1.41, 45.79 -2.41, 99.2 1.52 M102.51 -3.02 C103.01 40.63, 100.7 70.99, 97.36 95.54 M100.54 -0.9 C97.97 31.64, 98.37 63.29, 97.76 97.47 M95.77 102.32 C64 97.71, 20.48 98.01, 3.79 101.88 M98.05 99.3 C73.9 98.2, 48.77 98.36, 0.54 98 M-1.51 102.03 C-1.2 72.97, 2.37 58.03, -2.71 -1.62 M1.91 99.46 C0.59 67.45, 1.76 37.7, 0.61 -1.89" stroke="#1e1e1e" stroke-width="2" fill="none"></path></g></svg>