<?xml version="1.0" standalone="no"?>
<!DOCTYPE svg PUBLIC "-//W3C//DTD SVG 1.1//EN" "http://www.w3.org/Graphics/SVG/1.1/DTD/svg11.dtd">
<svg version="1.1" xmlns="http://www.w3.org/2000/svg" viewBox="0 0 119.3984375 118.84765625" width="238.796875" height="237.6953125"><!-- svg-source:excalidraw --><metadata></metadata><defs><style class="style-fonts">
      </style></defs><g stroke-linecap="round" transform="translate(10 10) rotate(0 49.69921875 49.423828125)"><path d="M-2.56 3.51 C26.08 1.57, 44.96 -2.45, 99.95 -2.3 M1.56 1.97 C26.98 0.05, 50.93 -0.67, 101.03 -0.32 M100.05 -3.35 C97.76 22.73, 96.59 41.34, 100.14 100.1 M101.13 1.2 C96.38 31.57, 99.52 68.27, 99.53 97.8 M97.34 101.5 C67.69 97.65, 37.88 98.75, -0.79 96.37 M97.83 100.26 C69.15 97.25, 43.75 98.11, -1.98 100.73 M0.47 96.42 C-2.59 65.57, 2.57 23.42, -1.15 1.12 M1.86 97.36 C0.49 68.3, -1.73 35.09, -1.17 -0.63" stroke="#1e1e1e" stroke-width="2" fill="none"></path></g></svg>